<mxfile host="app.diagrams.net" modified="2024-01-07T07:58:24.789Z" agent="Mozilla/5.0 (Windows NT 10.0; Win64; x64) AppleWebKit/537.36 (KHTML, like Gecko) Chrome/120.0.0.0 Safari/537.36" etag="pDzRNIwXM-EAz2Aoqb0B" version="22.1.17" type="google">
  <diagram id="C5RBs43oDa-KdzZeNtuy" name="Page-1">
    <mxGraphModel dx="3695" dy="2805" grid="1" gridSize="10" guides="1" tooltips="1" connect="1" arrows="1" fold="1" page="1" pageScale="1" pageWidth="827" pageHeight="1169" math="0" shadow="0">
      <root>
        <mxCell id="WIyWlLk6GJQsqaUBKTNV-0" />
        <mxCell id="WIyWlLk6GJQsqaUBKTNV-1" parent="WIyWlLk6GJQsqaUBKTNV-0" />
        <mxCell id="WIyWlLk6GJQsqaUBKTNV-2" value="" style="rounded=0;html=1;jettySize=auto;orthogonalLoop=1;fontSize=14;endArrow=block;endFill=0;endSize=8;strokeWidth=1;shadow=0;labelBackgroundColor=none;edgeStyle=orthogonalEdgeStyle;fontStyle=1" parent="WIyWlLk6GJQsqaUBKTNV-1" source="WIyWlLk6GJQsqaUBKTNV-3" target="WIyWlLk6GJQsqaUBKTNV-6" edge="1">
          <mxGeometry relative="1" as="geometry" />
        </mxCell>
        <mxCell id="WIyWlLk6GJQsqaUBKTNV-3" value="Create Auction" style="rounded=1;whiteSpace=wrap;html=1;fontSize=14;glass=0;strokeWidth=1;shadow=0;fillColor=#ffff88;strokeColor=#36393d;fontStyle=1" parent="WIyWlLk6GJQsqaUBKTNV-1" vertex="1">
          <mxGeometry x="160" y="80" width="120" height="40" as="geometry" />
        </mxCell>
        <mxCell id="WIyWlLk6GJQsqaUBKTNV-4" value="Yes" style="rounded=0;html=1;jettySize=auto;orthogonalLoop=1;fontSize=14;endArrow=block;endFill=0;endSize=8;strokeWidth=1;shadow=0;labelBackgroundColor=none;edgeStyle=orthogonalEdgeStyle;fontStyle=1" parent="WIyWlLk6GJQsqaUBKTNV-1" source="WIyWlLk6GJQsqaUBKTNV-6" target="WIyWlLk6GJQsqaUBKTNV-10" edge="1">
          <mxGeometry y="20" relative="1" as="geometry">
            <mxPoint as="offset" />
          </mxGeometry>
        </mxCell>
        <mxCell id="WIyWlLk6GJQsqaUBKTNV-5" value="" style="edgeStyle=orthogonalEdgeStyle;rounded=0;html=1;jettySize=auto;orthogonalLoop=1;fontSize=14;endArrow=block;endFill=0;endSize=8;strokeWidth=2;shadow=0;labelBackgroundColor=none;strokeColor=#FF0000;fontStyle=1" parent="WIyWlLk6GJQsqaUBKTNV-1" source="WIyWlLk6GJQsqaUBKTNV-6" target="WIyWlLk6GJQsqaUBKTNV-7" edge="1">
          <mxGeometry y="10" relative="1" as="geometry">
            <mxPoint as="offset" />
          </mxGeometry>
        </mxCell>
        <mxCell id="paBwKyIyJhN6auON00At-0" value="No" style="edgeLabel;html=1;align=center;verticalAlign=middle;resizable=0;points=[];fontSize=14;fontStyle=1" parent="WIyWlLk6GJQsqaUBKTNV-5" vertex="1" connectable="0">
          <mxGeometry x="-0.6418" y="3" relative="1" as="geometry">
            <mxPoint as="offset" />
          </mxGeometry>
        </mxCell>
        <mxCell id="WIyWlLk6GJQsqaUBKTNV-6" value="Valid Params?" style="rhombus;whiteSpace=wrap;html=1;shadow=0;fontFamily=Helvetica;fontSize=14;align=center;strokeWidth=1;spacing=6;spacingTop=-4;fillColor=#ffe6cc;strokeColor=#d79b00;fontStyle=1" parent="WIyWlLk6GJQsqaUBKTNV-1" vertex="1">
          <mxGeometry x="170" y="160" width="100" height="100" as="geometry" />
        </mxCell>
        <mxCell id="paBwKyIyJhN6auON00At-44" style="edgeStyle=orthogonalEdgeStyle;rounded=0;orthogonalLoop=1;jettySize=auto;html=1;exitX=0.5;exitY=1;exitDx=0;exitDy=0;fontSize=14;fontStyle=1" parent="WIyWlLk6GJQsqaUBKTNV-1" source="WIyWlLk6GJQsqaUBKTNV-7" target="paBwKyIyJhN6auON00At-42" edge="1">
          <mxGeometry relative="1" as="geometry">
            <mxPoint x="-4.547473508864641e-13" y="1300" as="sourcePoint" />
            <mxPoint x="220" y="1400" as="targetPoint" />
            <Array as="points">
              <mxPoint y="1300" />
              <mxPoint x="220" y="1300" />
            </Array>
          </mxGeometry>
        </mxCell>
        <mxCell id="WIyWlLk6GJQsqaUBKTNV-7" value="Error" style="rounded=1;whiteSpace=wrap;html=1;fontSize=14;glass=0;strokeWidth=2;shadow=0;fillColor=#e51400;fontColor=#ffffff;strokeColor=#B20000;fontStyle=1" parent="WIyWlLk6GJQsqaUBKTNV-1" vertex="1">
          <mxGeometry x="-60" y="1220" width="120" height="40" as="geometry" />
        </mxCell>
        <mxCell id="WIyWlLk6GJQsqaUBKTNV-8" value="" style="rounded=0;html=1;jettySize=auto;orthogonalLoop=1;fontSize=14;endArrow=block;endFill=0;endSize=8;strokeWidth=2;shadow=0;labelBackgroundColor=none;edgeStyle=orthogonalEdgeStyle;entryX=0.5;entryY=0;entryDx=0;entryDy=0;strokeColor=#FF0000;fontStyle=1" parent="WIyWlLk6GJQsqaUBKTNV-1" source="WIyWlLk6GJQsqaUBKTNV-10" target="WIyWlLk6GJQsqaUBKTNV-7" edge="1">
          <mxGeometry x="0.3333" y="20" relative="1" as="geometry">
            <mxPoint as="offset" />
            <mxPoint x="60" y="600" as="targetPoint" />
          </mxGeometry>
        </mxCell>
        <mxCell id="paBwKyIyJhN6auON00At-8" value="No" style="edgeLabel;html=1;align=center;verticalAlign=middle;resizable=0;points=[];fontSize=14;fontStyle=1" parent="WIyWlLk6GJQsqaUBKTNV-8" vertex="1" connectable="0">
          <mxGeometry x="-0.5525" y="1" relative="1" as="geometry">
            <mxPoint as="offset" />
          </mxGeometry>
        </mxCell>
        <mxCell id="WIyWlLk6GJQsqaUBKTNV-9" value="Yes" style="edgeStyle=orthogonalEdgeStyle;rounded=0;html=1;jettySize=auto;orthogonalLoop=1;fontSize=14;endArrow=block;endFill=0;endSize=8;strokeWidth=1;shadow=0;labelBackgroundColor=none;fontStyle=1" parent="WIyWlLk6GJQsqaUBKTNV-1" source="WIyWlLk6GJQsqaUBKTNV-10" target="paBwKyIyJhN6auON00At-2" edge="1">
          <mxGeometry y="10" relative="1" as="geometry">
            <mxPoint as="offset" />
            <mxPoint x="220" y="530" as="targetPoint" />
          </mxGeometry>
        </mxCell>
        <mxCell id="WIyWlLk6GJQsqaUBKTNV-10" value="Authenticated?" style="rhombus;whiteSpace=wrap;html=1;shadow=0;fontFamily=Helvetica;fontSize=14;align=center;strokeWidth=1;spacing=6;spacingTop=-4;fillColor=#ffe6cc;strokeColor=#d79b00;fontStyle=1" parent="WIyWlLk6GJQsqaUBKTNV-1" vertex="1">
          <mxGeometry x="170" y="300" width="100" height="100" as="geometry" />
        </mxCell>
        <mxCell id="paBwKyIyJhN6auON00At-3" style="edgeStyle=orthogonalEdgeStyle;rounded=0;orthogonalLoop=1;jettySize=auto;html=1;entryX=0.5;entryY=0;entryDx=0;entryDy=0;strokeColor=#FF0000;strokeWidth=2;fontSize=14;fontStyle=1" parent="WIyWlLk6GJQsqaUBKTNV-1" source="paBwKyIyJhN6auON00At-2" target="WIyWlLk6GJQsqaUBKTNV-7" edge="1">
          <mxGeometry relative="1" as="geometry">
            <mxPoint x="-90" y="630" as="targetPoint" />
          </mxGeometry>
        </mxCell>
        <mxCell id="paBwKyIyJhN6auON00At-5" value="No" style="edgeLabel;html=1;align=center;verticalAlign=middle;resizable=0;points=[];fontSize=14;fontStyle=1" parent="paBwKyIyJhN6auON00At-3" vertex="1" connectable="0">
          <mxGeometry x="-0.4" relative="1" as="geometry">
            <mxPoint as="offset" />
          </mxGeometry>
        </mxCell>
        <mxCell id="paBwKyIyJhN6auON00At-10" style="edgeStyle=orthogonalEdgeStyle;rounded=0;orthogonalLoop=1;jettySize=auto;html=1;entryX=0.5;entryY=0;entryDx=0;entryDy=0;fontSize=14;fontStyle=1" parent="WIyWlLk6GJQsqaUBKTNV-1" source="paBwKyIyJhN6auON00At-2" target="paBwKyIyJhN6auON00At-9" edge="1">
          <mxGeometry relative="1" as="geometry" />
        </mxCell>
        <mxCell id="paBwKyIyJhN6auON00At-11" value="Yes" style="edgeLabel;html=1;align=center;verticalAlign=middle;resizable=0;points=[];fontSize=14;fontStyle=1" parent="paBwKyIyJhN6auON00At-10" vertex="1" connectable="0">
          <mxGeometry x="-0.2667" y="2" relative="1" as="geometry">
            <mxPoint as="offset" />
          </mxGeometry>
        </mxCell>
        <mxCell id="paBwKyIyJhN6auON00At-2" value="Authorization?" style="rhombus;whiteSpace=wrap;html=1;shadow=0;fontFamily=Helvetica;fontSize=14;align=center;strokeWidth=1;spacing=6;spacingTop=-4;fillColor=#ffe6cc;strokeColor=#d79b00;fontStyle=1" parent="WIyWlLk6GJQsqaUBKTNV-1" vertex="1">
          <mxGeometry x="170" y="440" width="100" height="100" as="geometry" />
        </mxCell>
        <mxCell id="paBwKyIyJhN6auON00At-12" style="edgeStyle=orthogonalEdgeStyle;rounded=0;orthogonalLoop=1;jettySize=auto;html=1;entryX=0.5;entryY=0;entryDx=0;entryDy=0;strokeWidth=2;strokeColor=#FF0000;fontSize=14;fontStyle=1" parent="WIyWlLk6GJQsqaUBKTNV-1" source="paBwKyIyJhN6auON00At-9" target="WIyWlLk6GJQsqaUBKTNV-7" edge="1">
          <mxGeometry relative="1" as="geometry" />
        </mxCell>
        <mxCell id="paBwKyIyJhN6auON00At-13" value="No" style="edgeLabel;html=1;align=center;verticalAlign=middle;resizable=0;points=[];fontSize=14;fontStyle=1" parent="paBwKyIyJhN6auON00At-12" vertex="1" connectable="0">
          <mxGeometry x="-0.2571" y="-2" relative="1" as="geometry">
            <mxPoint as="offset" />
          </mxGeometry>
        </mxCell>
        <mxCell id="paBwKyIyJhN6auON00At-16" style="edgeStyle=orthogonalEdgeStyle;rounded=0;orthogonalLoop=1;jettySize=auto;html=1;fontSize=14;fontStyle=1" parent="WIyWlLk6GJQsqaUBKTNV-1" source="paBwKyIyJhN6auON00At-9" target="paBwKyIyJhN6auON00At-17" edge="1">
          <mxGeometry relative="1" as="geometry">
            <mxPoint x="220" y="810" as="targetPoint" />
          </mxGeometry>
        </mxCell>
        <mxCell id="paBwKyIyJhN6auON00At-27" value="Yes" style="edgeLabel;html=1;align=center;verticalAlign=middle;resizable=0;points=[];fontSize=14;fontStyle=1" parent="paBwKyIyJhN6auON00At-16" vertex="1" connectable="0">
          <mxGeometry x="-0.45" y="-1" relative="1" as="geometry">
            <mxPoint as="offset" />
          </mxGeometry>
        </mxCell>
        <mxCell id="paBwKyIyJhN6auON00At-9" value="User is able to create Auction?" style="rhombus;whiteSpace=wrap;html=1;shadow=0;fontFamily=Helvetica;fontSize=14;align=center;strokeWidth=1;spacing=6;spacingTop=-4;fillColor=#ffe6cc;strokeColor=#d79b00;fontStyle=1" parent="WIyWlLk6GJQsqaUBKTNV-1" vertex="1">
          <mxGeometry x="170" y="580" width="100" height="100" as="geometry" />
        </mxCell>
        <mxCell id="paBwKyIyJhN6auON00At-19" style="edgeStyle=orthogonalEdgeStyle;rounded=0;orthogonalLoop=1;jettySize=auto;html=1;entryX=0.5;entryY=0;entryDx=0;entryDy=0;fontSize=14;fontStyle=1" parent="WIyWlLk6GJQsqaUBKTNV-1" source="paBwKyIyJhN6auON00At-17" target="paBwKyIyJhN6auON00At-18" edge="1">
          <mxGeometry relative="1" as="geometry" />
        </mxCell>
        <mxCell id="paBwKyIyJhN6auON00At-17" value="Create Product" style="rounded=1;whiteSpace=wrap;html=1;fontSize=14;glass=0;strokeWidth=1;shadow=0;fillColor=#d5e8d4;strokeColor=#82b366;fontStyle=1" parent="WIyWlLk6GJQsqaUBKTNV-1" vertex="1">
          <mxGeometry x="160" y="720" width="120" height="40" as="geometry" />
        </mxCell>
        <mxCell id="paBwKyIyJhN6auON00At-21" style="edgeStyle=orthogonalEdgeStyle;rounded=0;orthogonalLoop=1;jettySize=auto;html=1;entryX=0.5;entryY=0;entryDx=0;entryDy=0;fontSize=14;fontStyle=1" parent="WIyWlLk6GJQsqaUBKTNV-1" source="paBwKyIyJhN6auON00At-18" target="paBwKyIyJhN6auON00At-24" edge="1">
          <mxGeometry relative="1" as="geometry" />
        </mxCell>
        <mxCell id="paBwKyIyJhN6auON00At-18" value="Create Auction" style="rounded=1;whiteSpace=wrap;html=1;fontSize=14;glass=0;strokeWidth=1;shadow=0;fillColor=#d5e8d4;strokeColor=#82b366;fontStyle=1" parent="WIyWlLk6GJQsqaUBKTNV-1" vertex="1">
          <mxGeometry x="160" y="800" width="120" height="40" as="geometry" />
        </mxCell>
        <mxCell id="paBwKyIyJhN6auON00At-23" style="edgeStyle=orthogonalEdgeStyle;rounded=0;orthogonalLoop=1;jettySize=auto;html=1;entryX=0;entryY=0.5;entryDx=0;entryDy=0;fontSize=14;fontStyle=1" parent="WIyWlLk6GJQsqaUBKTNV-1" source="paBwKyIyJhN6auON00At-20" target="paBwKyIyJhN6auON00At-22" edge="1">
          <mxGeometry relative="1" as="geometry" />
        </mxCell>
        <mxCell id="paBwKyIyJhN6auON00At-20" value="Send Job Queue" style="rounded=1;whiteSpace=wrap;html=1;fontSize=14;glass=0;strokeWidth=1;shadow=0;fillColor=#d5e8d4;strokeColor=#82b366;fontStyle=1" parent="WIyWlLk6GJQsqaUBKTNV-1" vertex="1">
          <mxGeometry x="230" y="1220" width="120" height="40" as="geometry" />
        </mxCell>
        <mxCell id="paBwKyIyJhN6auON00At-22" value="Insert Elasticsearch Document" style="rounded=1;whiteSpace=wrap;html=1;fontSize=14;glass=0;strokeWidth=1;shadow=0;fillColor=#d5e8d4;strokeColor=#82b366;fontStyle=1" parent="WIyWlLk6GJQsqaUBKTNV-1" vertex="1">
          <mxGeometry x="500" y="1215" width="120" height="50" as="geometry" />
        </mxCell>
        <mxCell id="paBwKyIyJhN6auON00At-28" style="edgeStyle=orthogonalEdgeStyle;rounded=0;orthogonalLoop=1;jettySize=auto;html=1;fontSize=14;entryX=0.5;entryY=0;entryDx=0;entryDy=0;fontStyle=1" parent="WIyWlLk6GJQsqaUBKTNV-1" source="paBwKyIyJhN6auON00At-24" target="paBwKyIyJhN6auON00At-33" edge="1">
          <mxGeometry relative="1" as="geometry">
            <mxPoint x="220" y="1080" as="targetPoint" />
          </mxGeometry>
        </mxCell>
        <mxCell id="paBwKyIyJhN6auON00At-29" value="Yes" style="edgeLabel;html=1;align=center;verticalAlign=middle;resizable=0;points=[];fontSize=14;fontStyle=1" parent="paBwKyIyJhN6auON00At-28" vertex="1" connectable="0">
          <mxGeometry x="-0.44" y="1" relative="1" as="geometry">
            <mxPoint as="offset" />
          </mxGeometry>
        </mxCell>
        <mxCell id="paBwKyIyJhN6auON00At-30" style="edgeStyle=orthogonalEdgeStyle;rounded=0;orthogonalLoop=1;jettySize=auto;html=1;entryX=0.5;entryY=0;entryDx=0;entryDy=0;fontSize=14;fontStyle=1" parent="WIyWlLk6GJQsqaUBKTNV-1" source="paBwKyIyJhN6auON00At-24" target="paBwKyIyJhN6auON00At-32" edge="1">
          <mxGeometry relative="1" as="geometry">
            <mxPoint x="450" y="969.9999999999998" as="targetPoint" />
          </mxGeometry>
        </mxCell>
        <mxCell id="paBwKyIyJhN6auON00At-31" value="No" style="edgeLabel;html=1;align=center;verticalAlign=middle;resizable=0;points=[];fontSize=14;fontStyle=1" parent="paBwKyIyJhN6auON00At-30" vertex="1" connectable="0">
          <mxGeometry x="-0.1953" y="2" relative="1" as="geometry">
            <mxPoint as="offset" />
          </mxGeometry>
        </mxCell>
        <mxCell id="paBwKyIyJhN6auON00At-24" value="User Is Verified?" style="rhombus;whiteSpace=wrap;html=1;shadow=0;fontFamily=Helvetica;fontSize=14;align=center;strokeWidth=1;spacing=6;spacingTop=-4;fillColor=#ffe6cc;strokeColor=#d79b00;fontStyle=1" parent="WIyWlLk6GJQsqaUBKTNV-1" vertex="1">
          <mxGeometry x="170" y="880" width="100" height="100" as="geometry" />
        </mxCell>
        <mxCell id="paBwKyIyJhN6auON00At-35" style="edgeStyle=orthogonalEdgeStyle;rounded=0;orthogonalLoop=1;jettySize=auto;html=1;exitX=0.5;exitY=1;exitDx=0;exitDy=0;entryX=1;entryY=0.5;entryDx=0;entryDy=0;fontSize=14;fontStyle=1" parent="WIyWlLk6GJQsqaUBKTNV-1" source="paBwKyIyJhN6auON00At-32" target="paBwKyIyJhN6auON00At-33" edge="1">
          <mxGeometry relative="1" as="geometry" />
        </mxCell>
        <mxCell id="paBwKyIyJhN6auON00At-50" value="Yes or No Response" style="edgeLabel;html=1;align=center;verticalAlign=middle;resizable=0;points=[];fontSize=14;fontStyle=1" parent="paBwKyIyJhN6auON00At-35" vertex="1" connectable="0">
          <mxGeometry x="0.1933" y="2" relative="1" as="geometry">
            <mxPoint as="offset" />
          </mxGeometry>
        </mxCell>
        <mxCell id="paBwKyIyJhN6auON00At-37" style="edgeStyle=orthogonalEdgeStyle;rounded=0;orthogonalLoop=1;jettySize=auto;html=1;entryX=0.5;entryY=0;entryDx=0;entryDy=0;fontSize=14;fontStyle=1" parent="WIyWlLk6GJQsqaUBKTNV-1" source="paBwKyIyJhN6auON00At-32" target="paBwKyIyJhN6auON00At-38" edge="1">
          <mxGeometry relative="1" as="geometry">
            <mxPoint x="560" y="1050" as="targetPoint" />
          </mxGeometry>
        </mxCell>
        <mxCell id="paBwKyIyJhN6auON00At-39" value="No" style="edgeLabel;html=1;align=center;verticalAlign=middle;resizable=0;points=[];fontSize=14;fontStyle=1" parent="paBwKyIyJhN6auON00At-37" vertex="1" connectable="0">
          <mxGeometry x="-0.3011" y="2" relative="1" as="geometry">
            <mxPoint as="offset" />
          </mxGeometry>
        </mxCell>
        <mxCell id="paBwKyIyJhN6auON00At-32" value="Admin Verify Auction Is Valid?" style="rhombus;whiteSpace=wrap;html=1;shadow=0;fontFamily=Helvetica;fontSize=14;align=center;strokeWidth=1;spacing=6;spacingTop=-4;fillColor=#ffe6cc;strokeColor=#d79b00;fontStyle=1" parent="WIyWlLk6GJQsqaUBKTNV-1" vertex="1">
          <mxGeometry x="390" y="970" width="100" height="100" as="geometry" />
        </mxCell>
        <mxCell id="paBwKyIyJhN6auON00At-34" style="edgeStyle=orthogonalEdgeStyle;rounded=0;orthogonalLoop=1;jettySize=auto;html=1;entryX=0.5;entryY=0;entryDx=0;entryDy=0;fontSize=14;fontStyle=1" parent="WIyWlLk6GJQsqaUBKTNV-1" source="paBwKyIyJhN6auON00At-33" target="paBwKyIyJhN6auON00At-20" edge="1">
          <mxGeometry relative="1" as="geometry" />
        </mxCell>
        <mxCell id="paBwKyIyJhN6auON00At-40" style="edgeStyle=orthogonalEdgeStyle;rounded=0;orthogonalLoop=1;jettySize=auto;html=1;entryX=0.5;entryY=0;entryDx=0;entryDy=0;fontSize=14;fontStyle=1" parent="WIyWlLk6GJQsqaUBKTNV-1" source="paBwKyIyJhN6auON00At-33" target="paBwKyIyJhN6auON00At-41" edge="1">
          <mxGeometry relative="1" as="geometry">
            <mxPoint x="220" y="1240" as="targetPoint" />
          </mxGeometry>
        </mxCell>
        <mxCell id="paBwKyIyJhN6auON00At-33" value="Update Status: Ready" style="rounded=1;whiteSpace=wrap;html=1;fontSize=14;glass=0;strokeWidth=1;shadow=0;fillColor=#d5e8d4;strokeColor=#82b366;fontStyle=1" parent="WIyWlLk6GJQsqaUBKTNV-1" vertex="1">
          <mxGeometry x="160" y="1090" width="120" height="40" as="geometry" />
        </mxCell>
        <mxCell id="paBwKyIyJhN6auON00At-38" value="Update Status: Cancelled" style="rounded=1;whiteSpace=wrap;html=1;fontSize=14;glass=0;strokeWidth=1;shadow=0;fillColor=#d5e8d4;strokeColor=#82b366;fontStyle=1" parent="WIyWlLk6GJQsqaUBKTNV-1" vertex="1">
          <mxGeometry x="500" y="1120" width="120" height="40" as="geometry" />
        </mxCell>
        <mxCell id="paBwKyIyJhN6auON00At-43" style="edgeStyle=orthogonalEdgeStyle;rounded=0;orthogonalLoop=1;jettySize=auto;html=1;exitX=0.5;exitY=1;exitDx=0;exitDy=0;fontSize=14;fontStyle=1" parent="WIyWlLk6GJQsqaUBKTNV-1" source="paBwKyIyJhN6auON00At-41" target="paBwKyIyJhN6auON00At-42" edge="1">
          <mxGeometry relative="1" as="geometry" />
        </mxCell>
        <mxCell id="paBwKyIyJhN6auON00At-41" value="Success" style="rounded=1;whiteSpace=wrap;html=1;fontSize=14;glass=0;strokeWidth=2;shadow=0;fillColor=#00FF00;fontColor=#ffffff;strokeColor=#B20000;fontStyle=1" parent="WIyWlLk6GJQsqaUBKTNV-1" vertex="1">
          <mxGeometry x="90" y="1220" width="120" height="40" as="geometry" />
        </mxCell>
        <mxCell id="paBwKyIyJhN6auON00At-45" style="edgeStyle=orthogonalEdgeStyle;rounded=0;orthogonalLoop=1;jettySize=auto;html=1;fontSize=14;fontStyle=1" parent="WIyWlLk6GJQsqaUBKTNV-1" source="paBwKyIyJhN6auON00At-42" edge="1">
          <mxGeometry relative="1" as="geometry">
            <mxPoint x="220" y="1340" as="targetPoint" />
          </mxGeometry>
        </mxCell>
        <mxCell id="paBwKyIyJhN6auON00At-42" value="End" style="ellipse;shape=doubleEllipse;whiteSpace=wrap;html=1;aspect=fixed;fontSize=14;fontStyle=1" parent="WIyWlLk6GJQsqaUBKTNV-1" vertex="1">
          <mxGeometry x="195" y="1340" width="50" height="50" as="geometry" />
        </mxCell>
        <mxCell id="paBwKyIyJhN6auON00At-47" style="edgeStyle=orthogonalEdgeStyle;rounded=0;orthogonalLoop=1;jettySize=auto;html=1;entryX=0.5;entryY=0;entryDx=0;entryDy=0;fontSize=14;fontStyle=1" parent="WIyWlLk6GJQsqaUBKTNV-1" source="paBwKyIyJhN6auON00At-46" target="WIyWlLk6GJQsqaUBKTNV-3" edge="1">
          <mxGeometry relative="1" as="geometry" />
        </mxCell>
        <mxCell id="paBwKyIyJhN6auON00At-46" value="Start" style="ellipse;shape=doubleEllipse;whiteSpace=wrap;html=1;aspect=fixed;fontSize=14;fontStyle=1" parent="WIyWlLk6GJQsqaUBKTNV-1" vertex="1">
          <mxGeometry x="190" y="-20" width="60" height="60" as="geometry" />
        </mxCell>
        <mxCell id="bLnfaEVcFm9MdAiPPJmq-0" value="" style="rounded=0;html=1;jettySize=auto;orthogonalLoop=1;fontSize=14;endArrow=block;endFill=0;endSize=8;strokeWidth=1;shadow=0;labelBackgroundColor=none;edgeStyle=orthogonalEdgeStyle;fontStyle=1" edge="1" parent="WIyWlLk6GJQsqaUBKTNV-1" source="bLnfaEVcFm9MdAiPPJmq-1" target="bLnfaEVcFm9MdAiPPJmq-5">
          <mxGeometry relative="1" as="geometry" />
        </mxCell>
        <mxCell id="bLnfaEVcFm9MdAiPPJmq-1" value="Create Raise" style="rounded=1;whiteSpace=wrap;html=1;fontSize=14;glass=0;strokeWidth=1;shadow=0;fillColor=#ffff88;strokeColor=#36393d;fontStyle=1" vertex="1" parent="WIyWlLk6GJQsqaUBKTNV-1">
          <mxGeometry x="1090" y="80" width="120" height="40" as="geometry" />
        </mxCell>
        <mxCell id="bLnfaEVcFm9MdAiPPJmq-2" value="Yes" style="rounded=0;html=1;jettySize=auto;orthogonalLoop=1;fontSize=14;endArrow=block;endFill=0;endSize=8;strokeWidth=1;shadow=0;labelBackgroundColor=none;edgeStyle=orthogonalEdgeStyle;fontStyle=1" edge="1" parent="WIyWlLk6GJQsqaUBKTNV-1" source="bLnfaEVcFm9MdAiPPJmq-5" target="bLnfaEVcFm9MdAiPPJmq-11">
          <mxGeometry y="20" relative="1" as="geometry">
            <mxPoint as="offset" />
          </mxGeometry>
        </mxCell>
        <mxCell id="bLnfaEVcFm9MdAiPPJmq-3" value="" style="edgeStyle=orthogonalEdgeStyle;rounded=0;html=1;jettySize=auto;orthogonalLoop=1;fontSize=14;endArrow=block;endFill=0;endSize=8;strokeWidth=2;shadow=0;labelBackgroundColor=none;strokeColor=#FF0000;fontStyle=1" edge="1" parent="WIyWlLk6GJQsqaUBKTNV-1" source="bLnfaEVcFm9MdAiPPJmq-5" target="bLnfaEVcFm9MdAiPPJmq-7">
          <mxGeometry y="10" relative="1" as="geometry">
            <mxPoint as="offset" />
          </mxGeometry>
        </mxCell>
        <mxCell id="bLnfaEVcFm9MdAiPPJmq-4" value="No" style="edgeLabel;html=1;align=center;verticalAlign=middle;resizable=0;points=[];fontSize=14;fontStyle=1" vertex="1" connectable="0" parent="bLnfaEVcFm9MdAiPPJmq-3">
          <mxGeometry x="-0.6418" y="3" relative="1" as="geometry">
            <mxPoint as="offset" />
          </mxGeometry>
        </mxCell>
        <mxCell id="bLnfaEVcFm9MdAiPPJmq-5" value="Valid Params?" style="rhombus;whiteSpace=wrap;html=1;shadow=0;fontFamily=Helvetica;fontSize=14;align=center;strokeWidth=1;spacing=6;spacingTop=-4;fillColor=#ffe6cc;strokeColor=#d79b00;fontStyle=1" vertex="1" parent="WIyWlLk6GJQsqaUBKTNV-1">
          <mxGeometry x="1100" y="160" width="100" height="100" as="geometry" />
        </mxCell>
        <mxCell id="bLnfaEVcFm9MdAiPPJmq-6" style="edgeStyle=orthogonalEdgeStyle;rounded=0;orthogonalLoop=1;jettySize=auto;html=1;exitX=0.5;exitY=1;exitDx=0;exitDy=0;fontSize=14;fontStyle=1" edge="1" parent="WIyWlLk6GJQsqaUBKTNV-1" source="bLnfaEVcFm9MdAiPPJmq-7" target="bLnfaEVcFm9MdAiPPJmq-46">
          <mxGeometry relative="1" as="geometry">
            <mxPoint x="929.9999999999995" y="1300" as="sourcePoint" />
            <mxPoint x="1150" y="1400" as="targetPoint" />
            <Array as="points">
              <mxPoint x="930" y="1320" />
            </Array>
          </mxGeometry>
        </mxCell>
        <mxCell id="bLnfaEVcFm9MdAiPPJmq-7" value="Error" style="rounded=1;whiteSpace=wrap;html=1;fontSize=14;glass=0;strokeWidth=2;shadow=0;fillColor=#e51400;fontColor=#ffffff;strokeColor=#B20000;fontStyle=1" vertex="1" parent="WIyWlLk6GJQsqaUBKTNV-1">
          <mxGeometry x="870" y="1160" width="120" height="40" as="geometry" />
        </mxCell>
        <mxCell id="bLnfaEVcFm9MdAiPPJmq-8" value="" style="rounded=0;html=1;jettySize=auto;orthogonalLoop=1;fontSize=14;endArrow=block;endFill=0;endSize=8;strokeWidth=2;shadow=0;labelBackgroundColor=none;edgeStyle=orthogonalEdgeStyle;entryX=0.5;entryY=0;entryDx=0;entryDy=0;strokeColor=#FF0000;fontStyle=1" edge="1" parent="WIyWlLk6GJQsqaUBKTNV-1" source="bLnfaEVcFm9MdAiPPJmq-11" target="bLnfaEVcFm9MdAiPPJmq-7">
          <mxGeometry x="0.3333" y="20" relative="1" as="geometry">
            <mxPoint as="offset" />
            <mxPoint x="990" y="600" as="targetPoint" />
          </mxGeometry>
        </mxCell>
        <mxCell id="bLnfaEVcFm9MdAiPPJmq-9" value="No" style="edgeLabel;html=1;align=center;verticalAlign=middle;resizable=0;points=[];fontSize=14;fontStyle=1" vertex="1" connectable="0" parent="bLnfaEVcFm9MdAiPPJmq-8">
          <mxGeometry x="-0.5525" y="1" relative="1" as="geometry">
            <mxPoint as="offset" />
          </mxGeometry>
        </mxCell>
        <mxCell id="bLnfaEVcFm9MdAiPPJmq-10" value="Yes" style="edgeStyle=orthogonalEdgeStyle;rounded=0;html=1;jettySize=auto;orthogonalLoop=1;fontSize=14;endArrow=block;endFill=0;endSize=8;strokeWidth=1;shadow=0;labelBackgroundColor=none;fontStyle=1;entryX=0.5;entryY=0;entryDx=0;entryDy=0;" edge="1" parent="WIyWlLk6GJQsqaUBKTNV-1" source="bLnfaEVcFm9MdAiPPJmq-11" target="bLnfaEVcFm9MdAiPPJmq-49">
          <mxGeometry y="10" relative="1" as="geometry">
            <mxPoint as="offset" />
            <mxPoint x="1150" y="440" as="targetPoint" />
          </mxGeometry>
        </mxCell>
        <mxCell id="bLnfaEVcFm9MdAiPPJmq-11" value="Authenticated?" style="rhombus;whiteSpace=wrap;html=1;shadow=0;fontFamily=Helvetica;fontSize=14;align=center;strokeWidth=1;spacing=6;spacingTop=-4;fillColor=#ffe6cc;strokeColor=#d79b00;fontStyle=1" vertex="1" parent="WIyWlLk6GJQsqaUBKTNV-1">
          <mxGeometry x="1100" y="300" width="100" height="100" as="geometry" />
        </mxCell>
        <mxCell id="bLnfaEVcFm9MdAiPPJmq-14" style="edgeStyle=orthogonalEdgeStyle;rounded=0;orthogonalLoop=1;jettySize=auto;html=1;entryX=0.5;entryY=0;entryDx=0;entryDy=0;fontSize=14;fontStyle=1;exitX=0.5;exitY=1;exitDx=0;exitDy=0;" edge="1" parent="WIyWlLk6GJQsqaUBKTNV-1" source="bLnfaEVcFm9MdAiPPJmq-49" target="bLnfaEVcFm9MdAiPPJmq-21">
          <mxGeometry relative="1" as="geometry">
            <mxPoint x="1150" y="540" as="sourcePoint" />
          </mxGeometry>
        </mxCell>
        <mxCell id="bLnfaEVcFm9MdAiPPJmq-17" style="edgeStyle=orthogonalEdgeStyle;rounded=0;orthogonalLoop=1;jettySize=auto;html=1;entryX=0.5;entryY=0;entryDx=0;entryDy=0;strokeWidth=2;strokeColor=#FF0000;fontSize=14;fontStyle=1" edge="1" parent="WIyWlLk6GJQsqaUBKTNV-1" source="bLnfaEVcFm9MdAiPPJmq-21" target="bLnfaEVcFm9MdAiPPJmq-7">
          <mxGeometry relative="1" as="geometry" />
        </mxCell>
        <mxCell id="bLnfaEVcFm9MdAiPPJmq-18" value="No" style="edgeLabel;html=1;align=center;verticalAlign=middle;resizable=0;points=[];fontSize=14;fontStyle=1" vertex="1" connectable="0" parent="bLnfaEVcFm9MdAiPPJmq-17">
          <mxGeometry x="-0.2571" y="-2" relative="1" as="geometry">
            <mxPoint as="offset" />
          </mxGeometry>
        </mxCell>
        <mxCell id="bLnfaEVcFm9MdAiPPJmq-19" style="edgeStyle=orthogonalEdgeStyle;rounded=0;orthogonalLoop=1;jettySize=auto;html=1;fontSize=14;fontStyle=1;entryX=0.5;entryY=0;entryDx=0;entryDy=0;" edge="1" parent="WIyWlLk6GJQsqaUBKTNV-1" source="bLnfaEVcFm9MdAiPPJmq-21" target="bLnfaEVcFm9MdAiPPJmq-50">
          <mxGeometry relative="1" as="geometry">
            <mxPoint x="1150" y="670" as="targetPoint" />
          </mxGeometry>
        </mxCell>
        <mxCell id="bLnfaEVcFm9MdAiPPJmq-20" value="Yes" style="edgeLabel;html=1;align=center;verticalAlign=middle;resizable=0;points=[];fontSize=14;fontStyle=1" vertex="1" connectable="0" parent="bLnfaEVcFm9MdAiPPJmq-19">
          <mxGeometry x="-0.45" y="-1" relative="1" as="geometry">
            <mxPoint as="offset" />
          </mxGeometry>
        </mxCell>
        <mxCell id="bLnfaEVcFm9MdAiPPJmq-21" value="Exist Auction?" style="rhombus;whiteSpace=wrap;html=1;shadow=0;fontFamily=Helvetica;fontSize=14;align=center;strokeWidth=1;spacing=6;spacingTop=-4;fillColor=#ffe6cc;strokeColor=#d79b00;fontStyle=1" vertex="1" parent="WIyWlLk6GJQsqaUBKTNV-1">
          <mxGeometry x="1100" y="520" width="100" height="100" as="geometry" />
        </mxCell>
        <mxCell id="bLnfaEVcFm9MdAiPPJmq-22" style="edgeStyle=orthogonalEdgeStyle;rounded=0;orthogonalLoop=1;jettySize=auto;html=1;entryX=0.5;entryY=0;entryDx=0;entryDy=0;fontSize=14;fontStyle=1;exitX=0.5;exitY=1;exitDx=0;exitDy=0;" edge="1" parent="WIyWlLk6GJQsqaUBKTNV-1" source="bLnfaEVcFm9MdAiPPJmq-50" target="bLnfaEVcFm9MdAiPPJmq-33">
          <mxGeometry relative="1" as="geometry">
            <mxPoint x="1150" y="710" as="sourcePoint" />
            <mxPoint x="1150" y="800" as="targetPoint" />
          </mxGeometry>
        </mxCell>
        <mxCell id="bLnfaEVcFm9MdAiPPJmq-26" style="edgeStyle=orthogonalEdgeStyle;rounded=0;orthogonalLoop=1;jettySize=auto;html=1;entryX=0;entryY=0.5;entryDx=0;entryDy=0;fontSize=14;fontStyle=1" edge="1" parent="WIyWlLk6GJQsqaUBKTNV-1" source="bLnfaEVcFm9MdAiPPJmq-27" target="bLnfaEVcFm9MdAiPPJmq-28">
          <mxGeometry relative="1" as="geometry" />
        </mxCell>
        <mxCell id="bLnfaEVcFm9MdAiPPJmq-27" value="Send Job Queue" style="rounded=1;whiteSpace=wrap;html=1;fontSize=14;glass=0;strokeWidth=1;shadow=0;fillColor=#d5e8d4;strokeColor=#82b366;fontStyle=1" vertex="1" parent="WIyWlLk6GJQsqaUBKTNV-1">
          <mxGeometry x="1160" y="1150" width="120" height="40" as="geometry" />
        </mxCell>
        <mxCell id="bLnfaEVcFm9MdAiPPJmq-28" value="Insert Elasticsearch Document" style="rounded=1;whiteSpace=wrap;html=1;fontSize=14;glass=0;strokeWidth=1;shadow=0;fillColor=#d5e8d4;strokeColor=#82b366;fontStyle=1" vertex="1" parent="WIyWlLk6GJQsqaUBKTNV-1">
          <mxGeometry x="1410" y="1220" width="120" height="50" as="geometry" />
        </mxCell>
        <mxCell id="bLnfaEVcFm9MdAiPPJmq-29" style="edgeStyle=orthogonalEdgeStyle;rounded=0;orthogonalLoop=1;jettySize=auto;html=1;fontSize=14;entryX=0.5;entryY=0;entryDx=0;entryDy=0;fontStyle=1" edge="1" parent="WIyWlLk6GJQsqaUBKTNV-1" source="bLnfaEVcFm9MdAiPPJmq-33" target="bLnfaEVcFm9MdAiPPJmq-41">
          <mxGeometry relative="1" as="geometry">
            <mxPoint x="1150" y="1080" as="targetPoint" />
          </mxGeometry>
        </mxCell>
        <mxCell id="bLnfaEVcFm9MdAiPPJmq-30" value="Yes" style="edgeLabel;html=1;align=center;verticalAlign=middle;resizable=0;points=[];fontSize=14;fontStyle=1" vertex="1" connectable="0" parent="bLnfaEVcFm9MdAiPPJmq-29">
          <mxGeometry x="-0.44" y="1" relative="1" as="geometry">
            <mxPoint as="offset" />
          </mxGeometry>
        </mxCell>
        <mxCell id="bLnfaEVcFm9MdAiPPJmq-33" value="User can Raise?" style="rhombus;whiteSpace=wrap;html=1;shadow=0;fontFamily=Helvetica;fontSize=14;align=center;strokeWidth=1;spacing=6;spacingTop=-4;fillColor=#ffe6cc;strokeColor=#d79b00;fontStyle=1" vertex="1" parent="WIyWlLk6GJQsqaUBKTNV-1">
          <mxGeometry x="1100" y="800" width="100" height="100" as="geometry" />
        </mxCell>
        <mxCell id="bLnfaEVcFm9MdAiPPJmq-39" style="edgeStyle=orthogonalEdgeStyle;rounded=0;orthogonalLoop=1;jettySize=auto;html=1;entryX=0.5;entryY=0;entryDx=0;entryDy=0;fontSize=14;fontStyle=1" edge="1" parent="WIyWlLk6GJQsqaUBKTNV-1" source="bLnfaEVcFm9MdAiPPJmq-41" target="bLnfaEVcFm9MdAiPPJmq-57">
          <mxGeometry relative="1" as="geometry" />
        </mxCell>
        <mxCell id="bLnfaEVcFm9MdAiPPJmq-40" style="edgeStyle=orthogonalEdgeStyle;rounded=0;orthogonalLoop=1;jettySize=auto;html=1;entryX=0.5;entryY=0;entryDx=0;entryDy=0;fontSize=14;fontStyle=1;exitX=0.5;exitY=1;exitDx=0;exitDy=0;" edge="1" parent="WIyWlLk6GJQsqaUBKTNV-1" source="bLnfaEVcFm9MdAiPPJmq-57" target="bLnfaEVcFm9MdAiPPJmq-44">
          <mxGeometry relative="1" as="geometry">
            <mxPoint x="1150" y="1240" as="targetPoint" />
          </mxGeometry>
        </mxCell>
        <mxCell id="bLnfaEVcFm9MdAiPPJmq-59" style="edgeStyle=orthogonalEdgeStyle;rounded=0;orthogonalLoop=1;jettySize=auto;html=1;entryX=0;entryY=0.5;entryDx=0;entryDy=0;fontSize=14;" edge="1" parent="WIyWlLk6GJQsqaUBKTNV-1" source="bLnfaEVcFm9MdAiPPJmq-41" target="bLnfaEVcFm9MdAiPPJmq-58">
          <mxGeometry relative="1" as="geometry" />
        </mxCell>
        <mxCell id="bLnfaEVcFm9MdAiPPJmq-41" value="Update Auction" style="rounded=1;whiteSpace=wrap;html=1;fontSize=14;glass=0;strokeWidth=1;shadow=0;fillColor=#d5e8d4;strokeColor=#82b366;fontStyle=1" vertex="1" parent="WIyWlLk6GJQsqaUBKTNV-1">
          <mxGeometry x="1090" y="940" width="120" height="40" as="geometry" />
        </mxCell>
        <mxCell id="bLnfaEVcFm9MdAiPPJmq-75" style="edgeStyle=orthogonalEdgeStyle;rounded=0;orthogonalLoop=1;jettySize=auto;html=1;entryX=0.5;entryY=0;entryDx=0;entryDy=0;fontSize=14;" edge="1" parent="WIyWlLk6GJQsqaUBKTNV-1" source="bLnfaEVcFm9MdAiPPJmq-44" target="bLnfaEVcFm9MdAiPPJmq-46">
          <mxGeometry relative="1" as="geometry" />
        </mxCell>
        <mxCell id="bLnfaEVcFm9MdAiPPJmq-44" value="Success" style="rounded=1;whiteSpace=wrap;html=1;fontSize=14;glass=0;strokeWidth=2;shadow=0;fillColor=#00FF00;fontColor=#ffffff;strokeColor=#B20000;fontStyle=1" vertex="1" parent="WIyWlLk6GJQsqaUBKTNV-1">
          <mxGeometry x="1020" y="1150" width="120" height="40" as="geometry" />
        </mxCell>
        <mxCell id="bLnfaEVcFm9MdAiPPJmq-46" value="End" style="ellipse;shape=doubleEllipse;whiteSpace=wrap;html=1;aspect=fixed;fontSize=14;fontStyle=1" vertex="1" parent="WIyWlLk6GJQsqaUBKTNV-1">
          <mxGeometry x="1055" y="1300" width="50" height="50" as="geometry" />
        </mxCell>
        <mxCell id="bLnfaEVcFm9MdAiPPJmq-47" style="edgeStyle=orthogonalEdgeStyle;rounded=0;orthogonalLoop=1;jettySize=auto;html=1;entryX=0.5;entryY=0;entryDx=0;entryDy=0;fontSize=14;fontStyle=1" edge="1" parent="WIyWlLk6GJQsqaUBKTNV-1" source="bLnfaEVcFm9MdAiPPJmq-48" target="bLnfaEVcFm9MdAiPPJmq-1">
          <mxGeometry relative="1" as="geometry" />
        </mxCell>
        <mxCell id="bLnfaEVcFm9MdAiPPJmq-48" value="Start" style="ellipse;shape=doubleEllipse;whiteSpace=wrap;html=1;aspect=fixed;fontSize=14;fontStyle=1" vertex="1" parent="WIyWlLk6GJQsqaUBKTNV-1">
          <mxGeometry x="1120" y="-20" width="60" height="60" as="geometry" />
        </mxCell>
        <mxCell id="bLnfaEVcFm9MdAiPPJmq-49" value="Get Auction Detail" style="rounded=1;whiteSpace=wrap;html=1;fontSize=14;glass=0;strokeWidth=1;shadow=0;fillColor=#d5e8d4;strokeColor=#82b366;fontStyle=1" vertex="1" parent="WIyWlLk6GJQsqaUBKTNV-1">
          <mxGeometry x="1090" y="440" width="120" height="40" as="geometry" />
        </mxCell>
        <mxCell id="bLnfaEVcFm9MdAiPPJmq-50" value="Valid Price Raise?" style="rhombus;whiteSpace=wrap;html=1;shadow=0;fontFamily=Helvetica;fontSize=14;align=center;strokeWidth=1;spacing=6;spacingTop=-4;fillColor=#ffe6cc;strokeColor=#d79b00;fontStyle=1" vertex="1" parent="WIyWlLk6GJQsqaUBKTNV-1">
          <mxGeometry x="1100" y="660" width="100" height="100" as="geometry" />
        </mxCell>
        <mxCell id="bLnfaEVcFm9MdAiPPJmq-53" style="edgeStyle=orthogonalEdgeStyle;rounded=0;orthogonalLoop=1;jettySize=auto;html=1;entryX=0.5;entryY=0;entryDx=0;entryDy=0;strokeWidth=2;strokeColor=#FF0000;fontSize=14;fontStyle=1;exitX=0;exitY=0.5;exitDx=0;exitDy=0;" edge="1" parent="WIyWlLk6GJQsqaUBKTNV-1" source="bLnfaEVcFm9MdAiPPJmq-50" target="bLnfaEVcFm9MdAiPPJmq-7">
          <mxGeometry relative="1" as="geometry">
            <mxPoint x="1110" y="595" as="sourcePoint" />
            <mxPoint x="940" y="1230" as="targetPoint" />
          </mxGeometry>
        </mxCell>
        <mxCell id="bLnfaEVcFm9MdAiPPJmq-54" value="No" style="edgeLabel;html=1;align=center;verticalAlign=middle;resizable=0;points=[];fontSize=14;fontStyle=1" vertex="1" connectable="0" parent="bLnfaEVcFm9MdAiPPJmq-53">
          <mxGeometry x="-0.2571" y="-2" relative="1" as="geometry">
            <mxPoint as="offset" />
          </mxGeometry>
        </mxCell>
        <mxCell id="bLnfaEVcFm9MdAiPPJmq-55" style="edgeStyle=orthogonalEdgeStyle;rounded=0;orthogonalLoop=1;jettySize=auto;html=1;entryX=0.5;entryY=0;entryDx=0;entryDy=0;strokeWidth=2;strokeColor=#FF0000;fontSize=14;fontStyle=1;exitX=0;exitY=0.5;exitDx=0;exitDy=0;" edge="1" parent="WIyWlLk6GJQsqaUBKTNV-1" source="bLnfaEVcFm9MdAiPPJmq-33" target="bLnfaEVcFm9MdAiPPJmq-7">
          <mxGeometry relative="1" as="geometry">
            <mxPoint x="1110" y="720" as="sourcePoint" />
            <mxPoint x="940" y="1230" as="targetPoint" />
          </mxGeometry>
        </mxCell>
        <mxCell id="bLnfaEVcFm9MdAiPPJmq-56" value="No" style="edgeLabel;html=1;align=center;verticalAlign=middle;resizable=0;points=[];fontSize=14;fontStyle=1" vertex="1" connectable="0" parent="bLnfaEVcFm9MdAiPPJmq-55">
          <mxGeometry x="-0.2571" y="-2" relative="1" as="geometry">
            <mxPoint as="offset" />
          </mxGeometry>
        </mxCell>
        <mxCell id="bLnfaEVcFm9MdAiPPJmq-74" style="edgeStyle=orthogonalEdgeStyle;rounded=0;orthogonalLoop=1;jettySize=auto;html=1;entryX=0.5;entryY=0;entryDx=0;entryDy=0;fontSize=14;" edge="1" parent="WIyWlLk6GJQsqaUBKTNV-1" source="bLnfaEVcFm9MdAiPPJmq-57" target="bLnfaEVcFm9MdAiPPJmq-27">
          <mxGeometry relative="1" as="geometry" />
        </mxCell>
        <mxCell id="bLnfaEVcFm9MdAiPPJmq-57" value="Create Auction History" style="rounded=1;whiteSpace=wrap;html=1;fontSize=14;glass=0;strokeWidth=1;shadow=0;fillColor=#d5e8d4;strokeColor=#82b366;fontStyle=1" vertex="1" parent="WIyWlLk6GJQsqaUBKTNV-1">
          <mxGeometry x="1090" y="1020" width="120" height="40" as="geometry" />
        </mxCell>
        <mxCell id="bLnfaEVcFm9MdAiPPJmq-61" style="edgeStyle=orthogonalEdgeStyle;rounded=0;orthogonalLoop=1;jettySize=auto;html=1;entryX=0.5;entryY=0;entryDx=0;entryDy=0;fontSize=14;" edge="1" parent="WIyWlLk6GJQsqaUBKTNV-1" source="bLnfaEVcFm9MdAiPPJmq-58" target="bLnfaEVcFm9MdAiPPJmq-60">
          <mxGeometry relative="1" as="geometry" />
        </mxCell>
        <mxCell id="bLnfaEVcFm9MdAiPPJmq-63" style="edgeStyle=orthogonalEdgeStyle;rounded=0;orthogonalLoop=1;jettySize=auto;html=1;exitX=1;exitY=0.5;exitDx=0;exitDy=0;fontSize=14;" edge="1" parent="WIyWlLk6GJQsqaUBKTNV-1" source="bLnfaEVcFm9MdAiPPJmq-58" target="bLnfaEVcFm9MdAiPPJmq-62">
          <mxGeometry relative="1" as="geometry" />
        </mxCell>
        <mxCell id="bLnfaEVcFm9MdAiPPJmq-58" value="Get All Auctioneer of Auction" style="rounded=1;whiteSpace=wrap;html=1;fontSize=14;glass=0;strokeWidth=1;shadow=0;fillColor=#d5e8d4;strokeColor=#82b366;fontStyle=1" vertex="1" parent="WIyWlLk6GJQsqaUBKTNV-1">
          <mxGeometry x="1260" y="920" width="110" height="80" as="geometry" />
        </mxCell>
        <mxCell id="bLnfaEVcFm9MdAiPPJmq-60" value="Create Or Update Notification&lt;br style=&quot;font-size: 14px;&quot;&gt;History" style="rounded=1;whiteSpace=wrap;html=1;fontSize=14;glass=0;strokeWidth=1;shadow=0;fillColor=#d5e8d4;strokeColor=#82b366;fontStyle=1" vertex="1" parent="WIyWlLk6GJQsqaUBKTNV-1">
          <mxGeometry x="1260" y="1040" width="110" height="80" as="geometry" />
        </mxCell>
        <mxCell id="bLnfaEVcFm9MdAiPPJmq-65" style="edgeStyle=orthogonalEdgeStyle;rounded=0;orthogonalLoop=1;jettySize=auto;html=1;entryX=0;entryY=0.5;entryDx=0;entryDy=0;fontSize=14;" edge="1" parent="WIyWlLk6GJQsqaUBKTNV-1" source="bLnfaEVcFm9MdAiPPJmq-62" target="bLnfaEVcFm9MdAiPPJmq-64">
          <mxGeometry relative="1" as="geometry" />
        </mxCell>
        <mxCell id="bLnfaEVcFm9MdAiPPJmq-66" value="No" style="edgeLabel;html=1;align=center;verticalAlign=middle;resizable=0;points=[];fontSize=14;" vertex="1" connectable="0" parent="bLnfaEVcFm9MdAiPPJmq-65">
          <mxGeometry x="-0.1501" y="4" relative="1" as="geometry">
            <mxPoint as="offset" />
          </mxGeometry>
        </mxCell>
        <mxCell id="bLnfaEVcFm9MdAiPPJmq-67" style="edgeStyle=orthogonalEdgeStyle;rounded=0;orthogonalLoop=1;jettySize=auto;html=1;entryX=0.5;entryY=0;entryDx=0;entryDy=0;fontSize=14;" edge="1" parent="WIyWlLk6GJQsqaUBKTNV-1" source="bLnfaEVcFm9MdAiPPJmq-62" target="bLnfaEVcFm9MdAiPPJmq-69">
          <mxGeometry relative="1" as="geometry">
            <mxPoint x="1555" y="1070" as="targetPoint" />
          </mxGeometry>
        </mxCell>
        <mxCell id="bLnfaEVcFm9MdAiPPJmq-68" value="Yes" style="edgeLabel;html=1;align=center;verticalAlign=middle;resizable=0;points=[];fontSize=14;" vertex="1" connectable="0" parent="bLnfaEVcFm9MdAiPPJmq-67">
          <mxGeometry x="-0.1428" y="-1" relative="1" as="geometry">
            <mxPoint as="offset" />
          </mxGeometry>
        </mxCell>
        <mxCell id="bLnfaEVcFm9MdAiPPJmq-62" value="Exist Socket Notif Room" style="rhombus;whiteSpace=wrap;html=1;shadow=0;fontFamily=Helvetica;fontSize=14;align=center;strokeWidth=1;spacing=6;spacingTop=-4;fillColor=#ffe6cc;strokeColor=#d79b00;fontStyle=1" vertex="1" parent="WIyWlLk6GJQsqaUBKTNV-1">
          <mxGeometry x="1430" y="910" width="90" height="100" as="geometry" />
        </mxCell>
        <mxCell id="bLnfaEVcFm9MdAiPPJmq-71" style="edgeStyle=orthogonalEdgeStyle;rounded=0;orthogonalLoop=1;jettySize=auto;html=1;entryX=1;entryY=0.5;entryDx=0;entryDy=0;exitX=0.5;exitY=1;exitDx=0;exitDy=0;fontSize=14;" edge="1" parent="WIyWlLk6GJQsqaUBKTNV-1" source="bLnfaEVcFm9MdAiPPJmq-64" target="bLnfaEVcFm9MdAiPPJmq-69">
          <mxGeometry relative="1" as="geometry">
            <mxPoint x="1740" y="980" as="sourcePoint" />
            <mxPoint x="1726" y="1160" as="targetPoint" />
          </mxGeometry>
        </mxCell>
        <mxCell id="bLnfaEVcFm9MdAiPPJmq-64" value="Create New Room" style="rounded=1;whiteSpace=wrap;html=1;fontSize=14;glass=0;strokeWidth=1;shadow=0;fillColor=#d5e8d4;strokeColor=#82b366;fontStyle=1" vertex="1" parent="WIyWlLk6GJQsqaUBKTNV-1">
          <mxGeometry x="1560" y="940" width="130" height="40" as="geometry" />
        </mxCell>
        <mxCell id="bLnfaEVcFm9MdAiPPJmq-73" style="edgeStyle=orthogonalEdgeStyle;rounded=0;orthogonalLoop=1;jettySize=auto;html=1;entryX=0.5;entryY=0;entryDx=0;entryDy=0;fontSize=14;" edge="1" parent="WIyWlLk6GJQsqaUBKTNV-1" source="bLnfaEVcFm9MdAiPPJmq-69" target="bLnfaEVcFm9MdAiPPJmq-70">
          <mxGeometry relative="1" as="geometry" />
        </mxCell>
        <mxCell id="bLnfaEVcFm9MdAiPPJmq-69" value="Send Notification to Seller, and All Auctioneer" style="rounded=1;whiteSpace=wrap;html=1;fontSize=14;glass=0;strokeWidth=1;shadow=0;fillColor=#d5e8d4;strokeColor=#82b366;fontStyle=1" vertex="1" parent="WIyWlLk6GJQsqaUBKTNV-1">
          <mxGeometry x="1410" y="1040" width="130" height="80" as="geometry" />
        </mxCell>
        <mxCell id="bLnfaEVcFm9MdAiPPJmq-70" value="Update UI" style="rounded=1;whiteSpace=wrap;html=1;fontSize=14;glass=0;strokeWidth=1;shadow=0;fillColor=#d5e8d4;strokeColor=#82b366;fontStyle=1" vertex="1" parent="WIyWlLk6GJQsqaUBKTNV-1">
          <mxGeometry x="1410" y="1150" width="130" height="40" as="geometry" />
        </mxCell>
        <mxCell id="bLnfaEVcFm9MdAiPPJmq-76" value="" style="rounded=0;whiteSpace=wrap;html=1;fillColor=none;strokeColor=#007FFF;strokeWidth=4;" vertex="1" parent="WIyWlLk6GJQsqaUBKTNV-1">
          <mxGeometry x="-83" y="-110" width="723" height="1530" as="geometry" />
        </mxCell>
        <mxCell id="bLnfaEVcFm9MdAiPPJmq-77" value="&lt;font style=&quot;font-size: 30px;&quot;&gt;&lt;b&gt;Create Auction&lt;/b&gt;&lt;/font&gt;" style="text;html=1;align=center;verticalAlign=middle;resizable=0;points=[];autosize=1;strokeColor=none;fillColor=none;" vertex="1" parent="WIyWlLk6GJQsqaUBKTNV-1">
          <mxGeometry x="120" y="-90" width="240" height="50" as="geometry" />
        </mxCell>
        <mxCell id="bLnfaEVcFm9MdAiPPJmq-78" value="" style="rounded=0;whiteSpace=wrap;html=1;fillColor=none;strokeWidth=4;strokeColor=#007FFF;" vertex="1" parent="WIyWlLk6GJQsqaUBKTNV-1">
          <mxGeometry x="850" y="-120" width="860" height="1530" as="geometry" />
        </mxCell>
        <mxCell id="bLnfaEVcFm9MdAiPPJmq-79" value="&lt;div style=&quot;text-align: center;&quot;&gt;&lt;span style=&quot;background-color: initial; font-size: 30px;&quot;&gt;&lt;b&gt;Create Auction Raise&lt;/b&gt;&lt;/span&gt;&lt;/div&gt;" style="text;whiteSpace=wrap;html=1;" vertex="1" parent="WIyWlLk6GJQsqaUBKTNV-1">
          <mxGeometry x="1055" y="-100" width="375" height="60" as="geometry" />
        </mxCell>
      </root>
    </mxGraphModel>
  </diagram>
</mxfile>
